<svg xmlns="http://www.w3.org/2000/svg" viewBox="0 0 162.595 140.915"><defs><style>.a{fill:#2fde71;}</style></defs><path class="a" d="M33.874,131.953a23.712,23.712,0,1,1,23.712-23.712,23.712,23.712,0,0,1-23.712,23.712m0-57.586a33.874,33.874,0,1,0,33.874,33.874A33.874,33.874,0,0,0,33.874,74.368m66.393-13.55h28.454V48.623H107.041L93.9,26.47a11.58,11.58,0,0,0-9.891-5.623,11.3,11.3,0,0,0-8.13,3.387l-25.067,25a11.226,11.226,0,0,0-3.387,8.2,11.443,11.443,0,0,0,5.759,9.959l22.7,13.753v33.874H88.072V70.98L72.829,59.8,88.546,43.881m40.174,88.072a23.712,23.712,0,1,1,23.712-23.712,23.712,23.712,0,0,1-23.712,23.712m0-57.586a33.874,33.874,0,1,0,33.874,33.874,33.874,33.874,0,0,0-33.874-33.874M108.4,25.589A12.195,12.195,0,1,0,96.2,13.395,12.144,12.144,0,0,0,108.4,25.589Z" transform="translate(0 -1.2)"/></svg>