<svg xmlns="http://www.w3.org/2000/svg" viewBox="0 0 577.955 416.664"><defs><style>.a{fill:#2fde71;fill-rule:evenodd;}</style></defs><g transform="translate(0 -0.154)"><g transform="translate(315.132 147.737)"><path class="a" d="M131.431,62.141c-39.073,0-70.834,32.517-70.834,72.521,0,39.987,31.761,72.521,70.834,72.521,39.055,0,70.834-32.517,70.834-72.521,0-39.987-31.779-72.521-70.834-72.521m0,207.053C58.962,269.212.01,208.854.01,134.663.01,60.489,58.962.131,131.431.131c72.451,0,131.4,60.341,131.4,134.532,0,74.173-58.952,134.532-131.4,134.532" transform="translate(-0.01 -0.131)"/></g><path class="a" d="M131.421,162.693c-39.055,0-70.834,32.517-70.834,72.521,0,39.987,31.779,72.521,70.834,72.521,39.073,0,70.834-32.517,70.834-72.521,0-39.987-31.761-72.521-70.834-72.521m0,207.053C58.952,369.764,0,309.423,0,235.232c0-74.173,58.952-134.549,131.421-134.549s131.421,60.358,131.421,134.549c0,74.173-58.952,134.549-131.421,134.549M229.076,65.248H123.142c-16.8,0-30.408-13.938-30.408-31.128s13.6-31.128,30.408-31.128H229.076c16.8,0,30.408,13.938,30.408,31.111,0,17.208-13.6,31.146-30.408,31.146" transform="translate(0 47.037)"/><g transform="translate(304.903 0.154)"><path class="a" d="M109.615,78.58A229.726,229.726,0,0,1,18.621,59.949C3.189,53.34-4.07,35.165,2.38,19.364A30.056,30.056,0,0,1,42.016,2.737a170.67,170.67,0,0,0,67.6,13.833A170.722,170.722,0,0,0,177.672,2.543a30.038,30.038,0,0,1,39.671,16.522c6.5,15.784-.721,33.976-16.135,40.637A229.762,229.762,0,0,1,109.633,78.58" transform="translate(-0.026 -0.143)"/></g></g></svg>