<svg xmlns="http://www.w3.org/2000/svg" viewBox="0 0 448 111.556"><defs><style>.a{fill:#4492e8;}.b{fill:#fff;stroke:#707070;}.c{stroke:none;}.d{fill:none;}</style></defs><g transform="translate(-852 -751.162)"><path class="a" d="M55.778,0,0,136.024l5.28,5.28,50.5-22.311,50.5,22.311,5.28-5.28Z" transform="translate(1144.833 751.162) rotate(90)"/><g transform="translate(1175.755 798.755)"><g class="b" transform="translate(0 0)"><circle class="c" cx="13.141" cy="13.141" r="13.141"/><circle class="d" cx="13.141" cy="13.141" r="12.641"/></g><g class="b" transform="translate(48.981 0)"><circle class="c" cx="13.141" cy="13.141" r="13.141"/><circle class="d" cx="13.141" cy="13.141" r="12.641"/></g><g class="b" transform="translate(97.963 0)"><circle class="c" cx="13.141" cy="13.141" r="13.141"/><circle class="d" cx="13.141" cy="13.141" r="12.641"/></g></g><g transform="translate(852 798.755)"><g class="b" transform="translate(0 0)"><circle class="c" cx="13.141" cy="13.141" r="13.141"/><circle class="d" cx="13.141" cy="13.141" r="12.641"/></g><g class="b" transform="translate(48.981 0)"><circle class="c" cx="13.141" cy="13.141" r="13.141"/><circle class="d" cx="13.141" cy="13.141" r="12.641"/></g><g class="b" transform="translate(97.963 0)"><circle class="c" cx="13.141" cy="13.141" r="13.141"/><circle class="d" cx="13.141" cy="13.141" r="12.641"/></g></g></g></svg>